<mxfile>
    <diagram id="PUcnxFitWya3NCTait5V" name="Page-1">
        <mxGraphModel dx="1554" dy="1046" grid="1" gridSize="10" guides="1" tooltips="1" connect="1" arrows="1" fold="1" page="1" pageScale="1" pageWidth="850" pageHeight="1100" math="0" shadow="0">
            <root>
                <mxCell id="0"/>
                <mxCell id="1" parent="0"/>
                <mxCell id="2" value="" style="aspect=fixed;html=1;points=[];align=center;image;fontSize=12;image=img/lib/azure2/compute/Function_Apps.svg;" vertex="1" parent="1">
                    <mxGeometry x="339" y="280" width="68" height="60" as="geometry"/>
                </mxCell>
                <mxCell id="3" value="SaveFile" style="text;html=1;align=center;verticalAlign=middle;resizable=0;points=[];autosize=1;" vertex="1" parent="1">
                    <mxGeometry x="335" y="340" width="60" height="20" as="geometry"/>
                </mxCell>
                <mxCell id="4" value="" style="aspect=fixed;html=1;points=[];align=center;image;fontSize=12;image=img/lib/mscae/Service_Bus.svg;" vertex="1" parent="1">
                    <mxGeometry x="340" y="440" width="50" height="50" as="geometry"/>
                </mxCell>
                <mxCell id="5" value="ServiceBus&lt;br&gt;" style="text;html=1;align=center;verticalAlign=middle;resizable=0;points=[];autosize=1;" vertex="1" parent="1">
                    <mxGeometry x="324" y="500" width="80" height="20" as="geometry"/>
                </mxCell>
                <mxCell id="6" value="" style="aspect=fixed;html=1;points=[];align=center;image;fontSize=12;image=img/lib/azure2/compute/Function_Apps.svg;" vertex="1" parent="1">
                    <mxGeometry x="160" y="550" width="68" height="60" as="geometry"/>
                </mxCell>
                <mxCell id="7" value="" style="aspect=fixed;html=1;points=[];align=center;image;fontSize=12;image=img/lib/azure2/compute/Function_Apps.svg;" vertex="1" parent="1">
                    <mxGeometry x="520" y="540" width="68" height="60" as="geometry"/>
                </mxCell>
                <mxCell id="8" value="" style="aspect=fixed;html=1;points=[];align=center;image;fontSize=12;image=img/lib/azure2/storage/Storage_Accounts.svg;" vertex="1" parent="1">
                    <mxGeometry x="20" y="560" width="62.5" height="50" as="geometry"/>
                </mxCell>
                <mxCell id="9" value="" style="aspect=fixed;html=1;points=[];align=center;image;fontSize=12;image=img/lib/azure2/iot/Logic_Apps.svg;" vertex="1" parent="1">
                    <mxGeometry x="331.5" y="690" width="67" height="52" as="geometry"/>
                </mxCell>
                <mxCell id="13" value="" style="shape=message;html=1;whiteSpace=wrap;html=1;outlineConnect=0;" vertex="1" parent="1">
                    <mxGeometry x="160" y="810" width="60" height="40" as="geometry"/>
                </mxCell>
                <mxCell id="14" value="" style="shape=message;html=1;whiteSpace=wrap;html=1;outlineConnect=0;" vertex="1" parent="1">
                    <mxGeometry x="510" y="810" width="60" height="40" as="geometry"/>
                </mxCell>
                <mxCell id="22" value="Email" style="fillColor=none;strokeColor=none;align=left;fontSize=12;fontColor=#212529;" vertex="1" parent="1">
                    <mxGeometry x="20" y="70" width="200" height="20" as="geometry"/>
                </mxCell>
                <mxCell id="24" value="Email" style="fillColor=none;strokeColor=none;align=left;fontSize=14;fontColor=#212529;" vertex="1" parent="1">
                    <mxGeometry x="20" y="105" width="200" height="30" as="geometry"/>
                </mxCell>
                <mxCell id="26" value="Email" style="fillColor=none;strokeColor=none;align=left;fontSize=16;fontColor=#212529;" vertex="1" parent="1">
                    <mxGeometry x="20" y="150" width="200" height="40" as="geometry"/>
                </mxCell>
                <mxCell id="28" value="" style="aspect=fixed;html=1;points=[];align=center;image;fontSize=12;image=img/lib/azure2/compute/Function_Apps.svg;" vertex="1" parent="1">
                    <mxGeometry x="570" y="350" width="68" height="60" as="geometry"/>
                </mxCell>
                <mxCell id="29" value="DecodeFile" style="text;html=1;align=center;verticalAlign=middle;resizable=0;points=[];autosize=1;" vertex="1" parent="1">
                    <mxGeometry x="558" y="410" width="80" height="20" as="geometry"/>
                </mxCell>
                <mxCell id="30" value="Notification Function" style="text;html=1;align=center;verticalAlign=middle;resizable=0;points=[];autosize=1;" vertex="1" parent="1">
                    <mxGeometry x="494" y="610" width="120" height="20" as="geometry"/>
                </mxCell>
                <mxCell id="31" value="Encode Function" style="text;html=1;align=center;verticalAlign=middle;resizable=0;points=[];autosize=1;" vertex="1" parent="1">
                    <mxGeometry x="139" y="620" width="110" height="20" as="geometry"/>
                </mxCell>
                <mxCell id="32" value="Storage Account" style="text;html=1;align=center;verticalAlign=middle;resizable=0;points=[];autosize=1;" vertex="1" parent="1">
                    <mxGeometry y="620" width="100" height="20" as="geometry"/>
                </mxCell>
                <mxCell id="33" value="Email Logic App&lt;br&gt;" style="text;html=1;align=center;verticalAlign=middle;resizable=0;points=[];autosize=1;" vertex="1" parent="1">
                    <mxGeometry x="410" y="706" width="100" height="20" as="geometry"/>
                </mxCell>
                <mxCell id="34" value="Encoding in progress&lt;br&gt;" style="text;html=1;align=center;verticalAlign=middle;resizable=0;points=[];autosize=1;" vertex="1" parent="1">
                    <mxGeometry x="125" y="860" width="130" height="20" as="geometry"/>
                </mxCell>
                <mxCell id="35" value="Encoding Complete&lt;br&gt;" style="text;html=1;align=center;verticalAlign=middle;resizable=0;points=[];autosize=1;" vertex="1" parent="1">
                    <mxGeometry x="480" y="860" width="120" height="20" as="geometry"/>
                </mxCell>
                <mxCell id="36" value="" style="shadow=0;dashed=0;html=1;strokeColor=none;fillColor=#4495D1;labelPosition=center;verticalLabelPosition=bottom;verticalAlign=top;align=center;outlineConnect=0;shape=mxgraph.veeam.2d.web_ui;" vertex="1" parent="1">
                    <mxGeometry x="310" y="90" width="131.5" height="90" as="geometry"/>
                </mxCell>
                <mxCell id="37" value="" style="endArrow=classic;html=1;" edge="1" parent="1" source="36" target="2">
                    <mxGeometry width="50" height="50" relative="1" as="geometry">
                        <mxPoint x="580" y="280" as="sourcePoint"/>
                        <mxPoint x="630" y="230" as="targetPoint"/>
                    </mxGeometry>
                </mxCell>
                <mxCell id="40" value="" style="endArrow=classic;html=1;" edge="1" parent="1" source="8" target="36">
                    <mxGeometry width="50" height="50" relative="1" as="geometry">
                        <mxPoint x="580" y="280" as="sourcePoint"/>
                        <mxPoint x="630" y="230" as="targetPoint"/>
                        <Array as="points">
                            <mxPoint x="51" y="135"/>
                        </Array>
                    </mxGeometry>
                </mxCell>
                <mxCell id="41" value="" style="endArrow=classic;html=1;" edge="1" parent="1" source="36" target="28">
                    <mxGeometry width="50" height="50" relative="1" as="geometry">
                        <mxPoint x="580" y="280" as="sourcePoint"/>
                        <mxPoint x="630" y="230" as="targetPoint"/>
                        <Array as="points">
                            <mxPoint x="604" y="135"/>
                        </Array>
                    </mxGeometry>
                </mxCell>
                <mxCell id="42" value="" style="endArrow=classic;html=1;" edge="1" parent="1" source="2" target="4">
                    <mxGeometry width="50" height="50" relative="1" as="geometry">
                        <mxPoint x="580" y="510" as="sourcePoint"/>
                        <mxPoint x="630" y="460" as="targetPoint"/>
                    </mxGeometry>
                </mxCell>
                <mxCell id="43" value="" style="endArrow=classic;html=1;" edge="1" parent="1" source="4" target="7">
                    <mxGeometry width="50" height="50" relative="1" as="geometry">
                        <mxPoint x="580" y="510" as="sourcePoint"/>
                        <mxPoint x="630" y="460" as="targetPoint"/>
                        <Array as="points">
                            <mxPoint x="365" y="570"/>
                        </Array>
                    </mxGeometry>
                </mxCell>
                <mxCell id="44" value="" style="endArrow=classic;html=1;" edge="1" parent="1" source="4" target="6">
                    <mxGeometry width="50" height="50" relative="1" as="geometry">
                        <mxPoint x="580" y="510" as="sourcePoint"/>
                        <mxPoint x="630" y="460" as="targetPoint"/>
                        <Array as="points">
                            <mxPoint x="365" y="570"/>
                        </Array>
                    </mxGeometry>
                </mxCell>
                <mxCell id="45" value="" style="endArrow=classic;html=1;entryX=0.988;entryY=0.441;entryDx=0;entryDy=0;entryPerimeter=0;" edge="1" parent="1" source="6" target="8">
                    <mxGeometry width="50" height="50" relative="1" as="geometry">
                        <mxPoint x="580" y="630" as="sourcePoint"/>
                        <mxPoint x="630" y="580" as="targetPoint"/>
                    </mxGeometry>
                </mxCell>
                <mxCell id="46" value="" style="endArrow=classic;html=1;" edge="1" parent="1" source="6" target="9">
                    <mxGeometry width="50" height="50" relative="1" as="geometry">
                        <mxPoint x="580" y="510" as="sourcePoint"/>
                        <mxPoint x="630" y="460" as="targetPoint"/>
                        <Array as="points">
                            <mxPoint x="370" y="640"/>
                        </Array>
                    </mxGeometry>
                </mxCell>
                <mxCell id="47" value="" style="endArrow=classic;html=1;entryX=0.527;entryY=-0.075;entryDx=0;entryDy=0;entryPerimeter=0;" edge="1" parent="1" source="7" target="9">
                    <mxGeometry width="50" height="50" relative="1" as="geometry">
                        <mxPoint x="580" y="510" as="sourcePoint"/>
                        <mxPoint x="365" y="680" as="targetPoint"/>
                        <Array as="points">
                            <mxPoint x="370" y="640"/>
                        </Array>
                    </mxGeometry>
                </mxCell>
                <mxCell id="48" value="" style="endArrow=classic;html=1;" edge="1" parent="1" source="9" target="13">
                    <mxGeometry width="50" height="50" relative="1" as="geometry">
                        <mxPoint x="580" y="510" as="sourcePoint"/>
                        <mxPoint x="630" y="460" as="targetPoint"/>
                        <Array as="points">
                            <mxPoint x="360" y="830"/>
                        </Array>
                    </mxGeometry>
                </mxCell>
                <mxCell id="49" value="" style="endArrow=classic;html=1;" edge="1" parent="1" source="9" target="14">
                    <mxGeometry width="50" height="50" relative="1" as="geometry">
                        <mxPoint x="580" y="510" as="sourcePoint"/>
                        <mxPoint x="630" y="460" as="targetPoint"/>
                        <Array as="points">
                            <mxPoint x="365" y="830"/>
                        </Array>
                    </mxGeometry>
                </mxCell>
                <mxCell id="50" value="Web" style="text;html=1;align=center;verticalAlign=middle;resizable=0;points=[];autosize=1;" vertex="1" parent="1">
                    <mxGeometry x="355.75" y="50" width="40" height="20" as="geometry"/>
                </mxCell>
            </root>
        </mxGraphModel>
    </diagram>
</mxfile>